<?xml version="1.0" encoding="utf-8"?>
<!-- Generator: Adobe Illustrator 16.0.0, SVG Export Plug-In . SVG Version: 6.00 Build 0)  -->
<!DOCTYPE svg PUBLIC "-//W3C//DTD SVG 1.1//EN" "http://www.w3.org/Graphics/SVG/1.1/DTD/svg11.dtd">
<svg version="1.1" id="图层_1" xmlns="http://www.w3.org/2000/svg" xmlns:xlink="http://www.w3.org/1999/xlink" x="0px" y="0px"
	 width="200px" height="200px" viewBox="0 0 200 200" enable-background="new 0 0 200 200" xml:space="preserve">
<path fill="#FF0000" d="M173.2,145.8c3.866,4,6.7,7.667,8.5,11s1.5,7.134-0.9,11.4c-0.533,0.8-1.267,1.767-2.2,2.899
	c-0.934,1.134-1.899,2.234-2.899,3.301s-2,2.033-3,2.899s-1.833,1.5-2.5,1.9c-3.333,2-7.267,2.533-11.8,1.6
	c-4.533-0.933-8.601-3.2-12.2-6.8l-8.4-8.4L126.6,154.4L113.4,141.2L99,126.8L73.4,152.4c-7.867,7.866-14.267,14.333-19.2,19.399
	c-5.067,5.067-10.1,8.2-15.1,9.4s-9.434,0.066-13.3-3.4l-1.4-1.399l-2.2-2.2L20,172c-0.8-0.8-1.267-1.334-1.4-1.6
	c-1.467-1.867-2.333-3.768-2.6-5.7c-0.267-1.934-0.1-3.833,0.5-5.7s1.5-3.666,2.7-5.4c1.2-1.732,2.533-3.333,4-4.8
	c1.2-1.066,3.333-3.066,6.4-6l10.8-11.2c4.4-4.266,9.3-9.066,14.7-14.399s11.033-10.934,16.9-16.8C65.6,94,59.5,87.934,53.7,82.2
	c-5.8-5.733-11-10.867-15.6-15.4c-4.6-4.533-8.367-8.233-11.3-11.1c-2.933-2.867-4.733-4.633-5.4-5.3
	c-3.466-3.466-5.233-6.9-5.3-10.3c-0.067-3.4,1.1-6.833,3.5-10.3c1.066-1.333,2.6-2.9,4.6-4.7c2-1.8,3.4-2.967,4.2-3.5
	c4-2.667,7.6-3.833,10.8-3.5c3.2,0.333,6.4,2.167,9.6,5.5l6.2,6.2c3.067,3.067,6.867,6.8,11.4,11.2c4.534,4.4,9.633,9.367,15.3,14.9
	c5.667,5.534,11.566,11.3,17.7,17.3c5.067-5.067,10.034-10,14.9-14.8c4.866-4.8,9.4-9.3,13.601-13.5c4.199-4.2,8-7.966,11.399-11.3
	c3.4-3.333,6.233-6.133,8.5-8.4c3.2-3.067,6.667-5.1,10.4-6.1s7.333-0.167,10.8,2.5c0.133,0.133,0.566,0.467,1.3,1
	s1.467,1.133,2.2,1.8c0.733,0.667,1.434,1.3,2.1,1.9c0.667,0.6,1.134,0.967,1.4,1.1c3.6,3.467,5.367,7.233,5.3,11.3
	c-0.066,4.066-1.833,7.833-5.3,11.3c-2.4,2.4-5.367,5.4-8.9,9s-7.467,7.533-11.8,11.8c-4.333,4.267-8.899,8.8-13.7,13.6L126.4,99.6
	c4.934,4.8,9.766,9.5,14.5,14.1c4.732,4.6,9.133,8.899,13.199,12.899s7.734,7.667,11,11
	C168.367,140.934,171.066,143.666,173.2,145.8L173.2,145.8z"/>
</svg>
